<?xml version="1.0" encoding="UTF-8" standalone="no"?>
<!-- Created with Inkscape (http://www.inkscape.org/) -->

<svg
   width="210mm"
   height="297mm"
   viewBox="0 0 210 297"
   version="1.1"
   id="svg5"
   inkscape:version="1.1.1 (3bf5ae0d25, 2021-09-20)"
   sodipodi:docname="home.svg"
   xmlns:inkscape="http://www.inkscape.org/namespaces/inkscape"
   xmlns:sodipodi="http://sodipodi.sourceforge.net/DTD/sodipodi-0.dtd"
   xmlns="http://www.w3.org/2000/svg"
   xmlns:svg="http://www.w3.org/2000/svg">
  <sodipodi:namedview
     id="namedview7"
     pagecolor="#ffffff"
     bordercolor="#666666"
     borderopacity="1.0"
     inkscape:pageshadow="2"
     inkscape:pageopacity="0.0"
     inkscape:pagecheckerboard="0"
     inkscape:document-units="mm"
     showgrid="false"
     inkscape:zoom="0.69664703"
     inkscape:cx="0"
     inkscape:cy="790.93139"
     inkscape:window-width="2880"
     inkscape:window-height="1526"
     inkscape:window-x="2869"
     inkscape:window-y="-11"
     inkscape:window-maximized="1"
     inkscape:current-layer="layer1" />
  <defs
     id="defs2" />
  <g
     inkscape:label="Calque 1"
     inkscape:groupmode="layer"
     id="layer1">
    <path
       d="m 181.73337,133.93548 c 0,4.7625 -3.96875,8.49313 -8.46666,8.49313 h -8.46667 l 0.18521,42.35979 c 0,0.74083 -0.0529,1.42875 -0.13229,2.14312 v 4.28625 c 0,5.84729 -4.73605,10.58334 -10.58334,10.58334 h -4.23333 c -0.29104,0 -0.58208,-0.23813 -0.87313,-0.0265 -0.37041,-0.21167 -0.74083,0.0265 -1.11125,0.0265 h -14.94895 c -5.8473,0 -10.58334,-4.73605 -10.58334,-10.58334 v -23.28333 c 0,-4.68312 -3.78354,-8.46667 -8.46666,-8.46667 H 97.119616 c -4.683123,0 -8.466664,3.78355 -8.466664,8.46667 v 23.28333 c 0,5.84729 -4.736041,10.58334 -10.583333,10.58334 H 63.279411 c -0.396875,0 -0.79375,-0.0265 -1.190625,-0.0529 -0.3175,0.0265 -0.635,0.0529 -0.9525,0.0529 h -4.233333 c -5.844646,0 -10.583334,-4.73605 -10.583334,-10.58334 v -29.63333 c 0,-0.23812 0.0079,-0.50271 0.02381,-0.74083 v -18.415 h -8.477247 c -4.770438,0 -8.479896,-3.73063 -8.479896,-8.49313 0,-2.38125 0.794808,-4.49791 2.648479,-6.35 L 99.871286,68.455339 c 1.852084,-1.855787 3.968754,-2.1209 5.820834,-2.1209 1.85209,0 3.96875,0.530225 5.58271,1.855788 l 67.54813,59.395253 c 2.11666,1.85209 3.20145,3.96875 2.91041,6.35 z"
       id="path824"
       style="fill:#ffffff;stroke-width:0.264583" />
  </g>
</svg>
